<?xml version="1.0" standalone="no"?>
<!DOCTYPE svg PUBLIC "-//W3C//DTD SVG 20010904//EN"
 "http://www.w3.org/TR/2001/REC-SVG-20010904/DTD/svg10.dtd">
<svg version="1.0" xmlns="http://www.w3.org/2000/svg"
 width="640.000000pt" height="640.000000pt" viewBox="0 0 640.000000 640.000000"
 preserveAspectRatio="xMidYMid meet">

<g transform="translate(0.000000,640.000000) scale(0.100000,-0.100000)"
fill="#000000" stroke="none">
<path d="M400 3600 l0 -610 170 0 170 0 0 610 0 610 -170 0 -170 0 0 -610z"/>
<path d="M1083 3848 l-273 -362 0 -160 0 -161 301 -388 301 -387 199 0 c109 0
199 3 199 8 0 4 -106 142 -236 307 -324 412 -469 598 -478 613 -5 8 108 166
318 446 179 239 326 437 326 440 0 3 -87 6 -192 6 l-193 0 -272 -362z"/>
<path d="M1820 3600 l0 -610 170 0 170 0 0 610 0 610 -170 0 -170 0 0 -610z"/>
<path d="M2493 3843 l-273 -366 0 -157 0 -157 306 -387 306 -386 194 0 c107 0
194 4 194 8 0 4 -21 35 -48 68 -77 97 -304 384 -359 455 -28 36 -110 141 -182
232 -72 91 -131 169 -131 172 0 4 577 775 653 873 7 9 -32 12 -189 12 l-199
-1 -272 -366z"/>
<path d="M3180 3449 c0 -724 1 -761 18 -748 9 8 88 77 175 153 l157 139 0 609
0 608 -175 0 -175 0 0 -761z"/>
<path d="M4370 3630 c0 -319 -3 -580 -7 -580 -5 0 -48 62 -98 138 -207 317
-658 998 -666 1007 -5 5 -9 -111 -9 -286 l0 -295 241 -379 c133 -209 307 -483
388 -610 l147 -230 159 0 160 0 5 725 5 725 235 0 235 0 3 -728 2 -727 198 2
197 3 3 728 2 727 250 0 250 0 0 180 0 180 -850 0 -850 0 0 -580z m132 443 l3
-78 35 0 c34 0 35 1 38 42 2 33 -2 46 -17 60 -12 10 -21 25 -21 35 0 14 8 18
40 18 l40 0 0 -105 0 -105 -65 0 c-93 0 -105 14 -105 125 0 84 0 85 25 85 23
0 24 -3 27 -77z m248 25 c14 -27 28 -48 32 -48 12 0 2 44 -10 48 -7 2 -12 15
-12 28 0 21 4 24 40 24 l40 0 0 -105 0 -105 -25 0 c-20 0 -31 11 -53 50 -15
27 -31 50 -35 50 -5 0 -7 -21 -5 -47 3 -46 2 -48 -24 -51 l-28 -3 0 106 0 106
28 -3 c21 -2 33 -14 52 -50z m267 37 c26 -19 44 -76 36 -116 -3 -16 -16 -40
-29 -54 -19 -21 -32 -25 -79 -25 -52 0 -55 1 -55 25 0 23 4 25 43 25 51 0 67
13 67 55 0 42 -16 55 -67 55 -39 0 -43 2 -43 25 0 24 3 25 53 25 31 0 61 -6
74 -15z m193 -10 c0 -16 -6 -25 -15 -25 -11 0 -15 -12 -15 -50 0 -36 4 -52 15
-56 8 -4 15 -17 15 -31 0 -23 -3 -24 -52 -21 -47 3 -53 5 -50 23 2 11 8 22 13
23 16 6 11 104 -7 116 -9 7 -12 18 -8 29 5 13 18 17 55 17 46 0 49 -2 49 -25z
m160 20 c0 -3 -12 -27 -27 -53 l-27 -48 32 -46 c18 -26 32 -49 32 -52 0 -3
-13 -6 -29 -6 -25 0 -34 8 -61 55 l-31 55 20 29 c12 16 21 33 21 38 0 16 24
33 47 33 13 0 23 -2 23 -5z m174 -11 c9 -8 16 -22 16 -31 0 -13 -8 -14 -42 -9
l-43 6 25 -20 c51 -39 60 -51 60 -77 0 -36 -27 -63 -62 -63 -32 0 -71 33 -66
58 4 23 39 28 50 8 11 -20 28 -21 28 -2 0 8 -9 18 -20 21 -27 9 -60 44 -60 65
0 8 7 26 16 38 18 26 74 30 98 6z m126 -19 c0 -31 3 -35 25 -35 14 0 25 5 25
10 0 6 -4 10 -10 10 -5 0 -10 11 -10 25 0 23 4 25 40 25 l40 0 0 -105 0 -105
-30 0 c-28 0 -30 2 -30 40 0 36 -3 40 -24 40 -21 0 -25 -5 -28 -37 -3 -33 -7
-38 -30 -41 l-28 -3 0 105 0 106 30 0 c28 0 30 -3 30 -35z m340 -71 l0 -105
-27 3 c-27 3 -28 5 -27 56 0 28 0 52 -2 52 -1 0 -17 -25 -34 -55 -27 -47 -36
-55 -61 -55 -16 0 -29 2 -29 4 0 3 28 50 62 105 54 90 64 101 90 101 l28 0 0
-106z"/>
<path d="M5915 3752 c-28 -6 -65 -42 -65 -64 0 -13 8 -18 30 -18 20 0 30 5 30
15 0 8 9 15 20 15 37 0 23 -41 -30 -92 -28 -27 -50 -57 -50 -68 0 -20 5 -21
83 -18 l82 3 3 29 c3 27 2 28 -32 24 -37 -4 -47 5 -21 19 22 13 54 80 48 103
-10 36 -55 61 -98 52z"/>
<path d="M5893 3370 c-32 -13 -43 -41 -43 -113 0 -53 4 -67 23 -84 31 -28 65
-34 98 -17 39 19 49 43 49 109 0 49 -4 60 -29 86 -30 29 -58 35 -98 19z m56
-54 c7 -8 11 -36 9 -63 -3 -41 -6 -48 -25 -51 -22 -3 -23 0 -23 56 0 72 12 90
39 58z"/>
<path d="M3521 2870 c-142 -125 -160 -143 -151 -161 6 -10 14 -19 18 -19 4 0
71 56 149 125 78 69 145 125 148 125 3 0 69 -57 146 -126 138 -123 141 -125
161 -108 20 19 20 19 -5 39 -13 11 -80 69 -148 129 -68 60 -131 116 -141 124
-14 12 -34 -3 -177 -128z"/>
<path d="M5875 2975 c-33 -32 -33 -65 -1 -65 13 0 30 10 38 22 16 24 38 17 38
-12 0 -18 -75 -100 -92 -100 -4 0 -8 -11 -8 -25 0 -25 1 -25 85 -25 l85 0 0
31 c0 30 -2 31 -35 27 -34 -4 -35 -4 -16 17 47 51 55 114 19 139 -34 24 -85
20 -113 -9z"/>
<path d="M3567 2797 l-117 -101 2 -151 3 -150 77 -3 77 -3 3 73 3 73 64 3 c45
2 67 -1 72 -10 5 -7 9 -41 9 -76 l0 -63 78 3 77 3 1 145 c1 80 -2 150 -5 156
-5 8 -149 138 -211 190 -13 11 -33 -2 -133 -89z"/>
<path d="M5906 2619 c-50 -14 -67 -69 -21 -69 14 0 25 5 25 10 0 6 7 10 15 10
8 0 15 -6 15 -14 0 -8 -7 -16 -15 -20 -23 -8 -19 -46 4 -46 26 0 36 -17 21
-35 -9 -11 -17 -12 -30 -5 -23 12 -70 13 -70 1 0 -5 9 -19 19 -32 28 -35 95
-33 127 4 29 34 30 51 4 77 -11 11 -15 22 -10 25 12 7 13 55 2 72 -12 20 -55
31 -86 22z"/>
<path d="M443 2235 c-36 -15 -51 -52 -34 -82 5 -11 28 -28 50 -38 41 -18 52
-37 29 -51 -6 -4 -16 0 -23 9 -17 24 -65 22 -65 -1 0 -43 77 -75 121 -52 31
17 39 29 39 61 0 28 -18 48 -67 73 -18 9 -33 21 -33 26 0 13 37 13 45 0 10
-16 55 -12 55 5 0 16 -35 55 -49 55 -5 0 -15 2 -23 5 -7 2 -27 -2 -45 -10z"/>
<path d="M1060 2237 c-79 -27 -102 -127 -44 -188 72 -75 204 -27 204 75 0 53
-19 84 -65 106 -47 23 -48 23 -95 7z m82 -64 c35 -32 9 -113 -37 -113 -22 0
-65 45 -65 67 0 53 63 82 102 46z"/>
<path d="M1645 2238 c-3 -8 -4 -61 -3 -119 l3 -104 27 -3 c27 -3 27 -3 30 65
l3 67 44 -67 c33 -52 49 -67 67 -67 24 0 24 0 24 121 l0 120 -42 -3 c-39 -3
-43 -6 -46 -30 -2 -20 1 -28 12 -28 8 0 17 -13 21 -31 8 -34 -2 -52 -15 -29
-55 98 -111 146 -125 108z"/>
<path d="M2335 2232 c-72 -33 -89 -126 -35 -181 31 -30 86 -48 115 -37 15 5
85 108 85 124 0 5 -28 8 -62 7 -56 -2 -63 -4 -66 -23 -3 -17 2 -22 17 -22 24
0 27 -12 7 -29 -43 -36 -91 63 -50 103 20 20 68 21 84 1 16 -19 70 -20 70 -1
0 16 -55 66 -73 66 -7 0 -21 2 -32 5 -11 3 -38 -3 -60 -13z"/>
<path d="M3062 2198 c-68 -94 -122 -174 -122 -181 0 -4 15 -7 34 -7 31 0 37 5
73 66 l38 66 5 -64 c5 -60 6 -63 33 -66 l27 -3 0 120 0 121 -25 0 c-18 0 -34
-14 -63 -52z"/>
<path d="M3587 2243 c-4 -3 -7 -58 -7 -120 l0 -114 28 3 c27 3 27 4 23 67 -4
76 3 74 55 -10 32 -51 41 -60 63 -57 l26 3 0 115 c0 113 0 115 -24 118 -43 7
-71 -6 -71 -33 0 -18 5 -25 20 -25 17 0 20 -7 20 -42 l0 -43 -42 65 c-49 78
-70 94 -91 73z"/>
<path d="M4851 2136 c-44 -63 -81 -118 -81 -121 0 -3 15 -5 34 -5 31 0 38 6
77 68 l44 67 3 -67 3 -68 30 0 30 0 -3 118 -3 117 -26 3 c-24 3 -36 -10 -108
-112z"/>
</g>
</svg>
