<?xml version="1.0" standalone="no"?>
<!DOCTYPE svg PUBLIC "-//W3C//DTD SVG 20010904//EN"
 "http://www.w3.org/TR/2001/REC-SVG-20010904/DTD/svg10.dtd">
<svg version="1.0" xmlns="http://www.w3.org/2000/svg"
 width="300.000000pt" height="150.000000pt" viewBox="0 0 300.000000 150.000000"
 preserveAspectRatio="xMidYMid meet">

<g transform="translate(0.000000,150.000000) scale(0.100000,-0.100000)"
fill="#000000" stroke="none">
<path d="M584 1021 c-23 -10 -45 -24 -48 -30 -5 -7 -52 -11 -132 -11 l-124 0
0 -265 0 -265 255 0 255 0 0 124 c0 80 4 127 11 132 21 13 49 89 49 136 0 60
-13 95 -53 137 -59 62 -135 77 -213 42z m144 -117 c31 -36 30 -97 -3 -129 -71
-72 -193 25 -145 115 28 53 107 60 148 14z m-258 -63 c0 -99 82 -188 179 -194
l41 -2 0 -47 0 -48 -155 0 -155 0 0 160 0 160 45 0 c43 0 45 -1 45 -29z"/>
<path d="M1721 861 c-13 -24 9 -57 33 -48 23 9 31 34 16 52 -17 20 -37 19 -49
-4z"/>
<path d="M980 730 l0 -130 30 0 30 0 0 130 0 130 -30 0 -30 0 0 -130z"/>
<path d="M1095 776 c-32 -32 -40 -69 -26 -118 10 -31 20 -43 48 -54 63 -27
123 5 137 72 9 39 -14 98 -42 113 -36 19 -91 13 -117 -13z m93 -72 c2 -27 -2
-45 -13 -54 -23 -19 -45 5 -45 50 0 43 7 52 35 48 16 -2 21 -12 23 -44z"/>
<path d="M1305 775 c-20 -19 -25 -34 -25 -73 0 -82 51 -124 111 -91 18 9 20 8
17 -13 -3 -25 -42 -38 -61 -19 -11 11 -67 16 -67 5 0 -56 119 -79 169 -33 19
18 21 31 21 134 l0 115 -30 0 c-21 0 -30 -5 -30 -17 0 -15 -1 -15 -18 0 -26
24 -59 21 -87 -8z m95 -46 c15 -26 9 -59 -12 -72 -23 -15 -48 8 -48 42 0 48
40 68 60 30z"/>
<path d="M1545 788 c-34 -19 -44 -41 -45 -89 0 -56 26 -94 69 -102 69 -14 121
33 121 108 0 71 -83 119 -145 83z m77 -63 c15 -34 0 -80 -27 -80 -24 0 -41 42
-31 79 8 34 42 35 58 1z"/>
<path d="M1716 791 c-3 -5 -3 -50 1 -100 l6 -91 28 0 29 0 0 100 0 100 -29 0
c-17 0 -32 -4 -35 -9z"/>
<path d="M1810 670 l0 -130 30 0 c29 0 30 2 30 42 0 33 3 39 12 30 7 -7 29
-12 50 -12 49 0 70 31 70 101 0 39 -5 56 -23 75 -26 28 -65 31 -91 7 -17 -15
-18 -15 -18 0 0 12 -9 17 -30 17 l-30 0 0 -130z m118 68 c13 -13 16 -47 6 -72
-8 -21 -50 -21 -58 0 -15 39 0 84 29 84 6 0 16 -5 23 -12z"/>
<path d="M2053 785 c-48 -34 -33 -88 29 -106 24 -7 47 -16 52 -20 16 -14 -25
-23 -45 -11 -19 12 -69 17 -69 6 0 -20 26 -45 58 -55 51 -15 108 7 118 47 10
38 -6 57 -60 72 -45 13 -56 24 -35 37 5 4 18 0 28 -9 25 -23 61 -21 61 3 0 44
-91 68 -137 36z"/>
<path d="M2227 794 c-14 -14 -8 -149 8 -171 18 -26 58 -34 90 -17 14 7 25 9
25 3 0 -5 14 -9 30 -9 l30 0 0 100 0 100 -30 0 -30 0 0 -64 c0 -66 -15 -94
-44 -83 -11 4 -16 26 -18 74 -3 64 -4 68 -28 71 -14 2 -29 0 -33 -4z"/>
<path d="M2440 700 l0 -100 30 0 30 0 0 64 c0 43 5 67 15 76 25 21 35 1 35
-71 l0 -69 30 0 c30 0 30 0 30 58 0 69 18 104 44 83 12 -10 16 -31 16 -77 l0
-64 30 0 30 0 0 80 c0 67 -3 83 -20 100 -24 24 -57 26 -82 3 -17 -15 -19 -15
-36 0 -10 10 -27 17 -37 17 -10 0 -27 -7 -37 -17 -17 -15 -18 -15 -18 0 0 12
-9 17 -30 17 l-30 0 0 -100z"/>
</g>
</svg>
